<?xml version="1.0" encoding="UTF-8"?>
<!-- Generator: Adobe Illustrator 23.1.0, SVG Export Plug-In . SVG Version: 6.00 Build 0)  -->
<svg version="1.1" id="Layer_1" xmlns="http://www.w3.org/2000/svg" xmlns:xlink="http://www.w3.org/1999/xlink" x="0px" y="0px" viewBox="0 0 981.6 790.8" style="enable-background:new 0 0 981.6 790.8;" xml:space="preserve">
<style type="text/css">
	.st0{opacity:0.3;fill:#E2EFF7;enable-background:new    ;}
	.st1{fill:#FFFFFF;}
	.st2{fill:#CBE1F7;}
	.st3{fill:none;stroke:#158CC9;stroke-width:1.75;stroke-linecap:round;stroke-linejoin:round;}
	.st4{fill:#FFFFFF;stroke:#158CC9;stroke-width:1.75;stroke-linecap:round;stroke-linejoin:round;}
	.st5{fill:#DBEDFF;}
	.st6{fill:none;stroke:#007DEA;stroke-width:0.75;stroke-linecap:round;stroke-linejoin:round;}
	.st7{fill:none;stroke:#158CC9;stroke-width:1.75;stroke-linecap:round;}
	.st8{fill:#158CC9;stroke:#158CC9;stroke-width:0.75;stroke-linecap:round;stroke-linejoin:round;}
	.st9{fill:#158CC9;}
	.st10{fill:#DBEDFF;stroke:#158CC9;stroke-width:0.75;stroke-linecap:round;stroke-linejoin:round;}
	.st11{fill:#FFFFFF;stroke:#158CC9;stroke-width:1.75;stroke-linejoin:round;}
	.st12{fill:none;stroke:#158CC9;stroke-width:1.75;stroke-linejoin:round;}
	.st13{fill:none;stroke:#158CC9;stroke-width:1.5;stroke-linecap:round;stroke-linejoin:round;}
</style>
<g id="Group_125" transform="translate(-895.589 -31.02)">
	<path id="Path_250" class="st0" d="M1052.6,692C957.5,621.3,894,501.9,911.1,384.8s127.8-219.4,245.7-207.7   c55.7,5.5,108.6,33.9,164.5,31c105.5-5.6,176.9-117.1,280.1-139.8c99.4-21.9,202.3,50.7,240.4,145c38.1,94.3,23,202.5-12.2,297.9   c-51.7,140.2-161.9,273.6-310.3,291.8C1394.3,818.2,1160,757.9,1052.6,692"/>
	<g id="Group_41" transform="translate(776.319 95.796)">
		<g id="Group_26" transform="translate(218.681 299.415)">
			<g id="Group_1" transform="translate(125.478 134.318)">
				<path id="Path_1" class="st1" d="M263.6-156.5c-46.7-8.6-80.2,6.3-106.3,29.1C131.2-104.7,123-68.9,43.6-52.8      S-62.9,1.3-68.5,49.1s32,117.7,120.1,117.7h174.5c32,0,104.1-7.4,135-78S396.1-132.2,263.6-156.5z"/>
				<path id="Path_2" class="st2" d="M299.4-119.9c-8.2-13.3-12.9-18-31.9-22.4s-88.8,18.9-105.9,29.2c-17,10.3-42.2,45.6-72,64      S-13.3-17.6-25,64.3c-8.6,60.6,25.3,89.3,60.2,101.6c5.5,0.6,10.9,0.9,16.4,0.9h84c9-26.6,34.9-71.5,89.9-118.7      C301.5-17.1,307.6-106.7,299.4-119.9z"/>
				<path id="Path_3" class="st3" d="M263.6-156.5c-46.7-8.6-80.2,6.3-106.3,29.1C131.2-104.7,123-68.9,43.6-52.8      S-62.9,1.3-68.5,49.1s32,117.7,120.1,117.7h174.5c32,0,104.1-7.4,135-78S396.1-132.2,263.6-156.5z"/>
			</g>
			<g id="Group_24">
				<g id="Group_9" transform="translate(0 247.894)">
					<path id="Path_4" class="st4" d="M54.8-37.7L19.9,7.8l3.9,16.3l17,8c1.5-4.6,3.7-9,6.6-12.8c4.7-6,30.1-37.5,30.1-37.5       L54.8-37.7z"/>
					<g id="Group_6" transform="translate(0 152.601)">
						<g id="Group_4" transform="translate(0 0.858)">
							<g id="Group_2">
								<path id="Path_5" class="st1" d="M32.6-95.9l-6.1,9L-69-143l6.1-9l30.1,17.7L32.6-95.9z"/>
								<path id="Path_6" class="st5" d="M6.5-154.4c8.3-0.9,11.2-4.1,13.9-2.2c2.7,1.9,3.7,7.4-1.6,11c-1.9-1.1-4.1-1.8-6.3-2          c-5.9-0.9-29.6-3.9-34.9-4.3s-6.2,3.1-6.2,3.1c0.1-2.1-0.2-4.1-0.8-6.1c0,0,1.4-2.6,6.1-1.8C-18.7-156-1.8-153.5,6.5-154.4z          "/>
								<path id="Path_7" class="st1" d="M-22.3-152c5.3,0.5,29,3.4,34.9,4.3c2.2,0.2,4.4,0.9,6.3,2c1.8,1.2,3.3,2.9,4.3,4.8          c2.6,4.4,6.6,9.1,11.6,11.9c5,2.8,7.7,2.2,8,6.5C43-118,40-105.3,32.6-95.9l-65.4-38.4c2.6-4.4,4.1-9.4,4.3-14.5          C-28.5-148.8-27.6-152.4-22.3-152z"/>
								<path id="Path_8" class="st1" d="M-29.4-154.9c0.6,2,0.9,4,0.8,6.1c-0.2,5.1-1.7,10.1-4.3,14.5L-62.9-152          c0,0,7.8-13.1,33.4-3.5C-29.6-155.5-29.5-155.3-29.4-154.9z"/>
							</g>
							<g id="Group_3">
								<path id="Path_9" class="st3" d="M32.6-95.9l-65.4-38.4L-62.9-152l-6.1,9l95.5,56L32.6-95.9z"/>
								<path id="Path_10" class="st3" d="M-62.9-152c0,0,7.8-13.1,33.4-3.5c0,0,0.1,0.2,0.2,0.5c0.6,2,0.9,4,0.8,6.1          c-0.2,5.1-1.7,10.1-4.3,14.5"/>
								<path id="Path_11" class="st3" d="M-28.5-148.8c0,0,0.9-3.6,6.2-3.1s29,3.4,34.9,4.3c2.2,0.2,4.4,0.9,6.3,2          c1.8,1.2,3.3,2.9,4.3,4.8c2.6,4.4,6.6,9.1,11.6,11.9c5,2.8,7.7,2.2,8,6.5C43-118,40-105.3,32.6-95.9"/>
								<path id="Path_12" class="st3" d="M-29.4-154.9c0,0,1.4-2.6,6.1-1.8c4.7,0.8,21.6,3.2,29.9,2.4c8.3-0.9,11.2-4.1,13.9-2.2          c2.7,1.9,3.7,7.4-1.6,11"/>
							</g>
						</g>
						<g id="Group_5" transform="translate(47.035)">
							<path id="Path_13" class="st4" d="M-63.6-145.6c0.1,1.2-0.8,2.3-2,2.4l0,0c-1.2,0.1-2.3-0.8-2.4-2c0,0,0,0,0,0l-1-11.3         c-0.1-1.2,0.8-2.3,2-2.4c0,0,0,0,0,0l0,0c1.2-0.1,2.3,0.8,2.4,2L-63.6-145.6z"/>
							<path id="Path_14" class="st4" d="M-54.3-143.9c0.1,1.2-0.8,2.3-2,2.4l0,0c-1.2,0.1-2.3-0.8-2.4-2l-1.2-12.3         c-0.1-1.2,0.8-2.3,2-2.4l0,0c1.2-0.1,2.3,0.8,2.4,2L-54.3-143.9z"/>
							<path id="Path_15" class="st4" d="M-45.1-142.3c0.1,1.2-0.8,2.3-2,2.4l0,0c-1.2,0.1-2.3-0.8-2.4-2l-1.3-13.3         c-0.1-1.2,0.8-2.3,2-2.4l0,0c1.2-0.1,2.3,0.8,2.4,2L-45.1-142.3z"/>
							<path id="Path_16" class="st4" d="M-35.8-140.6c0.1,1.2-0.8,2.3-2,2.4l0,0c-1.2,0.1-2.3-0.8-2.4-2c0,0,0,0,0,0l-1.5-14.2         c-0.1-1.2,0.8-2.3,2-2.4l0,0c1.2-0.1,2.3,0.8,2.4,2L-35.8-140.6z"/>
						</g>
					</g>
					<g id="Group_8" transform="translate(118.553)">
						<g id="Group_7">
							<path id="Path_17" class="st1" d="M15.4-159L-69-34.1l32.9,29.2l74.5-93.4c0,0,45.6,19.9,56.4,19.9h54.4         c5.1,0,26-3.5,33.8-25c3.9-10.9,10-38.2-24.5-55.5L15.4-159z"/>
							<path id="Path_18" class="st2" d="M158.6-159H15.4L-15-113.9L23.9-80l14.6-18.3c0,0,45.6,19.9,56.4,19.9h54.4         c5.1,0,26-3.5,33.8-25C186.9-114.4,193-141.7,158.6-159z"/>
							<path id="Path_19" class="st3" d="M15.4-159L-69-34.1l32.9,29.2l74.5-93.4c0,0,45.6,19.9,56.4,19.9h54.4         c5.1,0,26-3.5,33.8-25c3.9-10.9,10-38.2-24.5-55.5L15.4-159z"/>
						</g>
						<path id="Path_20" class="st6" d="M38.4-98.3c0,0,6.7-20,0.2-36"/>
						<path id="Path_246" class="st7" d="M-61.5-45.1l33.2,30.5"/>
					</g>
				</g>
				<path id="Path_21" class="st8" d="M392.1-108.2c-3.5,25.3-5.1,33,2.8,45.7s16.2,32,1.7,45.4h-67.9v-93.1L392.1-108.2z"/>
				<path id="Path_22" class="st4" d="M322.2-45.5c-4.5,3.9-19.5,10.9-22.8,13.1S279.8-9.3,277.5-0.1s-0.1,27.3-1.8,39.4      s-18.3,59.2-18.3,59.2l81.7,46c0,0,4.8-15.9,5.8-28.9s4.2-24,14.2-37.5S400,12.2,402.4-1.8s0.6-20-8.2-28      c-5.6-5-22.9-13.6-22.9-13.6L322.2-45.5z"/>
				<g id="Group_14" transform="translate(57.75 369.126)">
					<path id="Path_23" class="st4" d="M44.3-159l-28.1,45.5l6.4,16.3l18.1,8c0.8-4.5,2.4-8.9,4.7-12.8c3.8-6,24.5-37.5,24.5-37.5       L44.3-159z"/>
					<g id="Group_12" transform="translate(0 32.226)">
						<g id="Group_10">
							<path id="Path_24" class="st1" d="M32.6-95.9l-6.1,9L-69-143l6.1-9l30.1,17.7L32.6-95.9z"/>
							<path id="Path_25" class="st5" d="M6.5-154.4c8.3-0.9,11.2-4.1,13.9-2.2c2.7,1.9,3.7,7.4-1.6,11c-1.9-1.1-4.1-1.8-6.3-2         c-5.9-0.9-29.6-3.9-34.9-4.3s-6.2,3.1-6.2,3.1c0.1-2.1-0.2-4.1-0.8-6.1c0,0,1.4-2.6,6.1-1.8C-18.7-156-1.8-153.5,6.5-154.4z"/>
							<path id="Path_26" class="st1" d="M-22.3-152c5.3,0.5,29,3.4,34.9,4.3c2.2,0.2,4.4,0.9,6.3,2c1.8,1.2,3.3,2.9,4.3,4.8         c2.6,4.4,6.6,9.1,11.6,11.9c5,2.8,7.7,2.2,8,6.5C43-118,40-105.3,32.6-95.9l-65.4-38.4c2.6-4.4,4.1-9.4,4.3-14.5         C-28.5-148.8-27.6-152.4-22.3-152z"/>
							<path id="Path_27" class="st1" d="M-29.4-154.9c0.6,2,0.9,4,0.8,6.1c-0.2,5.1-1.7,10.1-4.3,14.5L-62.9-152         c0,0,7.8-13.1,33.4-3.5C-29.6-155.5-29.5-155.3-29.4-154.9z"/>
						</g>
						<g id="Group_11">
							<path id="Path_28" class="st3" d="M32.6-95.9l-65.4-38.4L-62.9-152l-6.1,9l95.5,56L32.6-95.9z"/>
							<path id="Path_29" class="st3" d="M-62.9-152c0,0,7.8-13.1,33.4-3.5c0,0,0.1,0.2,0.2,0.5c0.6,2,0.9,4,0.8,6.1         c-0.2,5.1-1.7,10.1-4.3,14.5"/>
							<path id="Path_30" class="st3" d="M-28.5-148.8c0,0,0.9-3.6,6.2-3.1c5.3,0.5,29,3.4,34.9,4.3c2.2,0.2,4.4,0.9,6.3,2         c1.8,1.2,3.3,2.9,4.3,4.8c2.6,4.4,6.6,9.1,11.6,11.9c5,2.8,7.7,2.2,8,6.5C43-118,40-105.3,32.6-95.9"/>
							<path id="Path_31" class="st3" d="M-29.4-154.9c0,0,1.4-2.6,6.1-1.8c4.7,0.8,21.5,3.2,29.9,2.4c8.3-0.9,11.2-4.1,13.9-2.2         c2.7,1.9,3.7,7.4-1.6,11"/>
						</g>
					</g>
					<g id="Group_13" transform="translate(47.034 31.368)">
						<path id="Path_32" class="st4" d="M-63.6-145.6c0.1,1.2-0.8,2.3-2,2.4l0,0c-1.2,0.1-2.3-0.8-2.4-2c0,0,0,0,0,0l-1-11.3        c-0.1-1.2,0.8-2.3,2-2.4c0,0,0,0,0,0l0,0c1.2-0.1,2.3,0.8,2.4,2L-63.6-145.6z"/>
						<path id="Path_33" class="st4" d="M-54.3-143.9c0.1,1.2-0.8,2.3-2,2.4l0,0c-1.2,0.1-2.3-0.8-2.4-2l-1.2-12.3        c-0.1-1.2,0.8-2.3,2-2.4l0,0c1.2-0.1,2.3,0.8,2.4,2L-54.3-143.9z"/>
						<path id="Path_34" class="st4" d="M-45.1-142.3c0.1,1.2-0.8,2.3-2,2.4l0,0c-1.2,0.1-2.3-0.8-2.4-2l-1.3-13.3        c-0.1-1.2,0.8-2.3,2-2.4l0,0c1.2-0.1,2.3,0.8,2.4,2L-45.1-142.3z"/>
						<path id="Path_35" class="st4" d="M-35.8-140.6c0.1,1.2-0.8,2.3-2,2.4l0,0c-1.2,0.1-2.3-0.8-2.4-2c0,0,0,0,0,0l-1.5-14.2        c-0.1-1.2,0.8-2.3,2-2.4l0,0c1.2-0.1,2.3,0.8,2.4,2L-35.8-140.6z"/>
					</g>
				</g>
				<g id="Group_15" transform="translate(166.433 247.894)">
					<path id="Path_36" class="st4" d="M-3.3-159L-69-34.1l37.3,29.2l60.6-93.4c0,0,48.6,19.9,59.3,19.9h54.4c5.1,0,25.5-3.5,30-25       c2.3-10.9,4.3-38.2-32.7-55.5L-3.3-159z"/>
					<path id="Path_37" class="st3" d="M28.8-98.3c0,0,3.7-20-5.1-36"/>
					<path id="Path_247" class="st7" d="M-63.2-45.1l37.8,30.5"/>
				</g>
				<g id="Group_18" transform="translate(358.091)">
					<g id="Group_16" transform="translate(31.599 75.835)">
						<path id="Path_38" class="st1" d="M-25.5-159c0,0-1.6,15.2-1,23.9s8,15.8,8,15.8S-30.2-100-57.2-105        c-11.7-2.2-12.9-12.8-11.2-15.2s12.1-10.4,12.1-38.7L-25.5-159z"/>
						<path id="Path_39" class="st2" d="M-26.6-140.2c0-8.5,1.1-18.8,1.1-18.8h-30.8c0,28.4-10.4,36.3-12.1,38.7        c-0.8,1.2-1,4.2,0.4,7.3C-48.3-116-33.1-132.2-26.6-140.2z"/>
						<path id="Path_40" class="st3" d="M-25.5-159c0,0-1.6,15.2-1,23.9s8,15.8,8,15.8S-30.2-100-57.2-105        c-11.7-2.2-12.9-12.8-11.2-15.2s12.1-10.4,12.1-38.7L-25.5-159z"/>
					</g>
					<path id="Path_41" class="st8" d="M-43.4-152.2c-21.7,12.8-42.8,45.5-4.1,51.2h12v-51.2H-43.4z"/>
					<path id="Path_42" class="st4" d="M-36.1-144.3c-14.4,9.4-17.5,23-17.5,37.3s0.1,14.8-0.6,22.2S-48-58.7-39-57.3       c10.3,1.7,33.3-3.3,43.4-19.2c11.4-3.7,20.6-12.9,21.5-36.6C27.1-141.7-8.2-162.6-36.1-144.3z"/>
					<path id="Path_43" class="st8" d="M-44.9-151.2c-4.8,3.6,1.4,28.4,23.8,42.8c20.7,13.2,38.3,14.2,38.3,14.2s13.6,0.6,15.9-9.1       c3.3-14,0.4-36.7-23.3-49.5C-10.8-164-36-157.8-44.9-151.2z"/>
					<g id="Group_17" transform="translate(73.464 57.947)">
						<path id="Path_44" class="st1" d="M-65.5-151.3c0,0,4.5-8.1,11.7-7.6s4.5,11.8,0,17.5s-12,7.4-15.2,7.1        C-68.9-140.2-67.7-145.9-65.5-151.3z"/>
						<path id="Path_45" class="st3" d="M-65.5-151.3c0,0,4.5-8.1,11.7-7.6s4.5,11.8,0,17.5s-12,7.4-15.2,7.1"/>
					</g>
					<path id="Path_46" class="st9" d="M-20.4-98.2c0,2.2-1.4,4-3.1,4s-3.1-1.8-3.1-4s1.4-4,3.1-4S-20.4-100.4-20.4-98.2z"/>
					<path id="Path_47" class="st9" d="M-46.4-98.2c0,1.9-1.1,3.5-2.5,3.5s-2.5-1.6-2.5-3.5s1.1-3.5,2.5-3.5S-46.4-100.1-46.4-98.2z       "/>
					<path id="Path_48" class="st3" d="M-41.6-82c0,0-2.1-1.2-1-4.7"/>
					<path id="Path_49" class="st3" d="M-42.3-72.2c4.3,1.1,8.9,0.5,12.8-1.7"/>
					<path id="Path_50" class="st3" d="M-28.6-108.2c0,0,3.3-1.7,11.1,0"/>
					<path id="Path_51" class="st3" d="M-46.4-109c-1.4-0.8-3.1-1.1-4.7-1.2"/>
				</g>
				<path id="Path_52" class="st4" d="M303.8-62.2h12c2.5-0.1,4.9,0.8,6.7,2.5c1.8,1.8,6.3,5.1,7.4,5.9s2.8,1.7,2.6,2.6      s-3.1,2.9-6.8,1.4s-5.5-2.9-6.7-3.3c-1.5-0.3-3.1-0.4-4.6-0.4v16.4c0,1.2-7.9,10.1-9.3,10.9s-5.7,0.3-6.7,0s-7.7-2.1-7.7-2.1      s-13.1,44.5-15.8,54s-16.1,16.5-24.3,15.6s-9.3-14.9-8.3-21.2s37.4-63.2,39.4-65.4S302-62.2,303.8-62.2z"/>
				<g id="Group_20" transform="translate(159.997 152.623)">
					<path id="Path_53" class="st10" d="M134.4-71.1H69.7l5.7,7.4h64.7L134.4-71.1z"/>
					<path id="Path_54" class="st4" d="M75.4-63.7h-114L-69-159H45L75.4-63.7z"/>
					<g id="Group_19" transform="translate(52.61 38.047)">
						<path id="Path_55" class="st2" d="M-52.6-138.5l-4.3-2.4c-10.3-5.7-11.4-9.8-11.9-11.4c-1-3.7,1.2-6.8,4.9-6.8        c2.5,0.1,4.8,1.2,6.5,3c0.8-1.9,2.7-3.2,4.8-3c4,0.2,7.5,2.9,8.6,6.8c0.4,1.6,1.6,5.7-5.7,11.4L-52.6-138.5z"/>
					</g>
				</g>
				<g id="Group_23" transform="translate(306.164 140.091)">
					<g id="Group_21" transform="translate(0 52.474)">
						<path id="Path_56" class="st1" d="M56.4-159l-4.5,31.2l-70.8,13.1c0,0-13.4-16.4-14.5-17.4s-12.5-2.9-14-2.9s-13.5,6-15.4,7.4        c-1.9,1.4-5.1,11.9-5.7,13s-0.9,3.7,1.4,3.7H-53c1.4,0,14.5,10,17.1,12s5.8,4.7,18.6,2c10.9,0.5,68.8,0.2,77.7-0.1        s15.6-2,17.9-10.3S91.9-159,91.9-159L56.4-159z"/>
						<path id="Path_57" class="st5" d="M54.3-144.5c4.5,2.1,14.1,5.8,31.5,8.8c3.2-12.1,6.1-23.4,6.1-23.4H56.4L54.3-144.5z"/>
						<path id="Path_58" class="st3" d="M56.4-159l-4.5,31.2l-70.8,13.1c0,0-13.4-16.4-14.5-17.4s-12.5-2.9-14-2.9s-13.5,6-15.4,7.4        c-1.9,1.4-5.1,11.9-5.7,13s-0.9,3.7,1.4,3.7H-53c1.4,0,14.5,10,17.1,12s5.8,4.7,18.6,2c10.9,0.5,68.8,0.2,77.7-0.1        s15.6-2,17.9-10.3S91.9-159,91.9-159L56.4-159z"/>
					</g>
					<g id="Group_22" transform="translate(122.293)">
						<path id="Path_59" class="st1" d="M-65.9-134.9L-69-99.8c0,0,28.1,2,46.3,0c0,0,3.8-35.1-3.4-58.8        C-31.5-158.1-63.9-165.2-65.9-134.9z"/>
						<path id="Path_60" class="st3" d="M-65.9-134.9L-69-99.8c0,0,28.1,2,46.3,0c0,0,3.8-35.1-3.4-58.8"/>
					</g>
				</g>
			</g>
			<g id="Group_25" transform="translate(269.183 148.531)">
				<path id="Path_61" class="st1" d="M143.1-159l-7,5.8c0,0,30.5,12,19.5,44.3C143.6-73.4,90.1-61,38.6-42.6S-51.3,9.9-65.1,57.4      c-12.9,44.3,7.2,88.6,44.7,94.5c9.2-1.3,169.7-28,169.7-28l41.8-207.3C193.1-139.4,143.1-159,143.1-159z"/>
				<path id="Path_62" class="st3" d="M-11.7,152.6c-43,0-67.2-47.6-53.4-95.1s52.3-81.7,103.7-100s104.9-30.8,117-66.2      c11-32.4-19.5-44.3-19.5-44.3"/>
			</g>
		</g>
		<g id="Group_28" transform="translate(720.064 94.204)">
			<g id="Group_27" transform="translate(34.646 156.057)">
				<path id="Path_63" class="st11" d="M-18.5-127.1c0,10.3-8.3,18.6-18.6,18.6c-10.3,0-18.6-8.3-18.6-18.6s8.3-18.6,18.6-18.6      c0,0,0,0,0,0C-26.8-145.6-18.5-137.3-18.5-127.1z"/>
				<line id="Line_3" class="st3" x1="-37.1" y1="-102" x2="-37.1" y2="-95.1"/>
				<line id="Line_4" class="st3" x1="-24.6" y1="-105.4" x2="-21.1" y2="-99.4"/>
				<line id="Line_5" class="st3" x1="-15.4" y1="-114.6" x2="-9.4" y2="-111.1"/>
				<line id="Line_6" class="st3" x1="-12.1" y1="-127.1" x2="-5.2" y2="-127.1"/>
				<line id="Line_7" class="st3" x1="-15.4" y1="-139.6" x2="-9.4" y2="-143"/>
				<line id="Line_8" class="st3" x1="-24.6" y1="-148.7" x2="-21.1" y2="-154.7"/>
				<line id="Line_9" class="st3" x1="-37.1" y1="-152.1" x2="-37.1" y2="-159"/>
				<line id="Line_10" class="st3" x1="-49.6" y1="-148.7" x2="-53" y2="-154.7"/>
				<line id="Line_11" class="st3" x1="-58.7" y1="-139.6" x2="-64.7" y2="-143"/>
				<line id="Line_12" class="st3" x1="-62.1" y1="-127.1" x2="-69" y2="-127.1"/>
				<line id="Line_13" class="st3" x1="-58.7" y1="-114.6" x2="-64.7" y2="-111.1"/>
				<line id="Line_14" class="st3" x1="-49.6" y1="-105.4" x2="-53" y2="-99.4"/>
			</g>
			<line id="Line_15" class="st12" x1="-2.4" y1="-159" x2="-2.4" y2="-14.1"/>
			<path id="Path_64" class="st11" d="M-59.7,33.3c-10.8,0-12.4-5.1-3.6-11.3l44.7-31.4c8.9-6.2,23.4-6.2,32.2,0L58.4,22     c8.9,6.2,7.3,11.3-3.6,11.3H-59.7z"/>
		</g>
		<g id="Group_36" transform="translate(705.07 540.403)">
			<g id="Group_33">
				<g id="Group_29" transform="translate(59.108)">
					<path id="Path_65" class="st4" d="M-55.8,1.3c-12.2-8.4-4.8-22.2-10.4-31.3s-2-18.5,3.8-24.6s7.2-11,3.1-19.5s0.5-19,4.3-23.8       s13-11.4,16.8-31.6S-7.2-159-7.2-159s17.6,22.9,9.4,41.8s-4.1,29.5-3.6,35.6s-1.5,17.3-9.6,22.2s-9.7,9.7-8.2,18       s-0.8,18-10.5,22.5S-41,1.1-55.8,1.3z"/>
					<line id="Line_16" class="st3" x1="-55.8" y1="1.3" x2="-7.2" y2="-159"/>
					<line id="Line_17" class="st3" x1="-47.3" y1="-26.6" x2="-57.2" y2="-45.8"/>
					<line id="Line_18" class="st3" x1="-45.5" y1="-32.1" x2="-25.4" y2="-40"/>
					<line id="Line_19" class="st3" x1="-19.2" y1="-118.7" x2="-2.7" y2="-125.2"/>
					<line id="Line_20" class="st3" x1="-33.2" y1="-72.8" x2="-6.6" y2="-83.3"/>
					<line id="Line_21" class="st3" x1="-34.6" y1="-68.6" x2="-47" y2="-92.8"/>
					<line id="Line_22" class="st3" x1="-21.4" y1="-112.1" x2="-29" y2="-126.9"/>
				</g>
				<g id="Group_30" transform="translate(15.793 4.4)">
					<path id="Path_66" class="st4" d="M-14.7-10.9c11.3-7.6,4.6-20.4,9.9-28.8s2-17.1-3.2-22.7s-6.5-10.2-2.7-18       s-0.3-17.5-3.8-21.9s-11.9-10.6-15.2-29.2S-58.1-159-58.1-159s-16.4,20.9-9.1,38.4s3.6,27.2,3,32.8c-0.5,5.6,1.2,16,8.6,20.5       s8.8,9.1,7.4,16.6s0.5,16.6,9.5,20.8S-28.3-11.3-14.7-10.9z"/>
					<line id="Line_23" class="st3" x1="-14.7" y1="-10.9" x2="-58.1" y2="-159"/>
					<line id="Line_24" class="st3" x1="-22.2" y1="-36.7" x2="-12.9" y2="-54.3"/>
					<line id="Line_25" class="st3" x1="-23.8" y1="-41.8" x2="-42.3" y2="-49.2"/>
					<line id="Line_26" class="st3" x1="-47.3" y1="-121.7" x2="-62.4" y2="-127.9"/>
					<line id="Line_27" class="st3" x1="-34.8" y1="-79.3" x2="-59.2" y2="-89.2"/>
					<line id="Line_28" class="st3" x1="-33.6" y1="-75.5" x2="-21.9" y2="-97.7"/>
					<line id="Line_29" class="st3" x1="-45.3" y1="-115.6" x2="-38.2" y2="-129.2"/>
				</g>
				<g id="Group_31" transform="translate(0 88.184)">
					<path id="Path_67" class="st4" d="M-11.5-92.3c4.1-6.5-2.3-11.6-1.5-17.2s-2.9-9.3-6.9-11s-5.7-3.8-5.6-8.7       c0.2-4.9-4.2-9-7-10.5s-8.6-2.7-14.6-11.6s-21-7.7-21-7.7s-3.7,14.6,4.2,22s8.1,13.3,9.1,16.3s4.3,8,9.2,8.6s6.7,2.7,7.7,6.9       s4.1,8.5,9.7,8.6S-18.6-89.3-11.5-92.3z"/>
					<line id="Line_30" class="st3" x1="-11.5" y1="-92.3" x2="-68.2" y2="-158.9"/>
					<line id="Line_31" class="st3" x1="-21.4" y1="-103.9" x2="-20.6" y2="-115.1"/>
					<line id="Line_32" class="st3" x1="-23.4" y1="-106.1" x2="-34.6" y2="-105.7"/>
					<line id="Line_33" class="st3" x1="-54" y1="-142.1" x2="-63.2" y2="-141.8"/>
					<line id="Line_34" class="st3" x1="-37.7" y1="-123.1" x2="-52.6" y2="-122.5"/>
					<line id="Line_35" class="st3" x1="-36.2" y1="-121.3" x2="-35.3" y2="-135.5"/>
					<line id="Line_36" class="st3" x1="-51.6" y1="-139.4" x2="-51" y2="-148.1"/>
				</g>
				<g id="Group_32" transform="translate(82.689 88.184)">
					<path id="Path_68" class="st4" d="M-67.6-92.3c-4.1-6.5,2.3-11.6,1.5-17.2s2.9-9.3,6.9-11s5.7-3.8,5.6-8.7       c-0.2-4.9,4.2-9,7-10.5s8.6-2.7,14.6-11.6s21-7.7,21-7.7s3.7,14.6-4.2,22s-8.1,13.3-9.1,16.3s-4.3,8-9.2,8.6s-6.7,2.7-7.7,6.9       s-4.1,8.5-9.7,8.6S-60.5-89.3-67.6-92.3z"/>
					<line id="Line_37" class="st3" x1="-67.6" y1="-92.3" x2="-11" y2="-158.9"/>
					<line id="Line_38" class="st3" x1="-57.8" y1="-103.9" x2="-58.5" y2="-115.1"/>
					<line id="Line_39" class="st3" x1="-55.8" y1="-106.1" x2="-44.5" y2="-105.7"/>
					<line id="Line_40" class="st3" x1="-25.2" y1="-142.1" x2="-15.9" y2="-141.8"/>
					<line id="Line_41" class="st3" x1="-41.4" y1="-123.1" x2="-26.5" y2="-122.5"/>
					<line id="Line_42" class="st3" x1="-42.9" y1="-121.3" x2="-43.9" y2="-135.5"/>
					<line id="Line_43" class="st3" x1="-27.6" y1="-139.4" x2="-28.1" y2="-148.1"/>
				</g>
			</g>
			<path id="Path_69" class="st4" d="M35.2,43.7h-66.8l-10.8-58.6h88.3L35.2,43.7z"/>
			<g id="Group_35" transform="translate(25.707 184.557)">
				<g id="Group_34">
					<rect id="Rectangle_7" x="-69" y="-159" class="st4" width="8.4" height="44.3"/>
					<rect id="Rectangle_8" x="12.8" y="-159" class="st4" width="8.4" height="44.3"/>
				</g>
				<rect id="Rectangle_9" x="-60.6" y="-140.9" class="st4" width="73.4" height="7.7"/>
				<rect id="Rectangle_10" x="-28.1" y="-159" class="st4" width="8.4" height="44.3"/>
			</g>
		</g>
		<g id="Group_40" transform="translate(369.235 221.794)">
			<g id="Group_37" transform="translate(0 182.017)">
				<line id="Line_44" class="st13" x1="-69" y1="-159" x2="-63.4" y2="-153.3"/>
				<line id="Line_45" class="st13" x1="-63.4" y1="-159" x2="-69" y2="-153.3"/>
			</g>
			<g id="Group_38" transform="translate(468.789 244.941)">
				<line id="Line_46" class="st13" x1="-69" y1="-159" x2="-63.4" y2="-153.3"/>
				<line id="Line_47" class="st13" x1="-63.4" y1="-159" x2="-69" y2="-153.3"/>
			</g>
			<circle id="Ellipse_1" class="st13" cx="68.2" cy="-0.3" r="4"/>
			<circle id="Ellipse_2" class="st13" cx="324.3" cy="53" r="4"/>
			<path id="Path_70" class="st13" d="M114.3-159l9.5,1.5l-6.1,7.5L114.3-159z"/>
			<path id="Path_71" class="st13" d="M434.8-35.5l-9.5,1.5l6.1,7.5L434.8-35.5z"/>
			<path id="Path_72" class="st13" d="M323.7-7.9c3.2,0,3.2,2.4,6.3,2.4s3.2-2.4,6.3-2.4s3.2,2.4,6.3,2.4s3.2-2.4,6.3-2.4     s3.2,2.4,6.4,2.4s3.2-2.4,6.4-2.4"/>
			<path id="Path_73" class="st13" d="M-11.1-87.3c3.2,0,3.2,2.4,6.3,2.4s3.2-2.4,6.3-2.4s3.2,2.4,6.3,2.4s3.2-2.4,6.3-2.4     s3.2,2.4,6.4,2.4s3.2-2.4,6.4-2.4"/>
			<g id="Group_39" transform="translate(302.572 34.579)">
				<path id="Path_74" class="st13" d="M-64-150.7l-1.5-1c-3.5-2.3-3.5-4-3.6-4.6c0-1.5,1.2-2.7,2.7-2.7c0.9,0,1.8,0.5,2.3,1.2      c0.5-0.8,1.4-1.2,2.3-1.2c1.5,0,2.7,1.2,2.8,2.7c0,0.6,0,2.3-3.5,4.6L-64-150.7z"/>
			</g>
		</g>
	</g>
</g>
</svg>