<svg fill="#fff" xmlns="http://www.w3.org/2000/svg" viewBox="0 0 50 50" width="50px" height="50px"><path d="M19.291 29.073L23.81 3.007 6.899 34.384zM26.19 3.007L29.93 24.513 36.292 21.787zM10.42 39L17.569 39 18.883 31.423 10.102 35.186zM21.484 28.133L28.041 25.323 25.001 7.845zM28.393 27.348L21.076 30.483 19.599 39 30.419 39zM8.164 36.017L5.368 37.215 4.404 39 8.413 39zM30.282 26.538L32.449 39 45.596 39 37.247 23.553zM40.18 41L41.062 46.288 45.469 41zM17.222 41L10.587 41 11.101 47.168 16.031 47.872zM8.58 41L4.531 41 9.029 46.398zM38.153 41L32.797 41 33.991 47.869 39.174 47.128z"/></svg>